<mxfile host="app.diagrams.net" modified="2021-01-22T02:34:23.860Z" agent="5.0 (Windows NT 10.0; WOW64) AppleWebKit/537.36 (KHTML, like Gecko) Chrome/87.0.4280.88 Safari/537.36" etag="sF2y1oaTazV2SegQwOGF" version="14.2.6" type="github">
  <diagram name="Page-1" id="9361dd3d-8414-5efd-6122-117bd74ce7a7">
    <mxGraphModel dx="1669" dy="1435" grid="1" gridSize="10" guides="1" tooltips="1" connect="1" arrows="1" fold="1" page="0" pageScale="1.5" pageWidth="826" pageHeight="1169" background="#ffffff" math="0" shadow="0">
      <root>
        <mxCell id="0" />
        <mxCell id="1" parent="0" />
        <mxCell id="fWY2vITO-XfqIBMaE34Q-89" value="" style="rounded=0;whiteSpace=wrap;html=1;fillColor=#d0cee2;strokeColor=#56517e;" vertex="1" parent="1">
          <mxGeometry x="-80" y="-540" width="1430" height="720" as="geometry" />
        </mxCell>
        <mxCell id="fWY2vITO-XfqIBMaE34Q-96" value="store" style="edgeStyle=orthogonalEdgeStyle;orthogonalLoop=1;jettySize=auto;html=1;strokeColor=#D5E8D4;strokeWidth=4;curved=1;" edge="1" parent="1" source="fWY2vITO-XfqIBMaE34Q-91" target="fWY2vITO-XfqIBMaE34Q-92">
          <mxGeometry relative="1" as="geometry" />
        </mxCell>
        <mxCell id="fWY2vITO-XfqIBMaE34Q-91" value="DICOM Modality A" style="rounded=0;whiteSpace=wrap;html=1;fillColor=#d5e8d4;strokeColor=#82b366;" vertex="1" parent="1">
          <mxGeometry x="60" y="-390" width="120" height="60" as="geometry" />
        </mxCell>
        <mxCell id="fWY2vITO-XfqIBMaE34Q-132" style="edgeStyle=orthogonalEdgeStyle;orthogonalLoop=1;jettySize=auto;html=1;entryX=0;entryY=0.5;entryDx=0;entryDy=0;fillColor=#fad9d5;strokeColor=#F8CECC;strokeWidth=6;curved=1;" edge="1" parent="1" source="fWY2vITO-XfqIBMaE34Q-92" target="fWY2vITO-XfqIBMaE34Q-130">
          <mxGeometry relative="1" as="geometry" />
        </mxCell>
        <mxCell id="fWY2vITO-XfqIBMaE34Q-133" style="edgeStyle=orthogonalEdgeStyle;orthogonalLoop=1;jettySize=auto;html=1;entryX=0;entryY=0.5;entryDx=0;entryDy=0;strokeColor=#D5E8D4;curved=1;rounded=0;strokeWidth=4;" edge="1" parent="1" source="fWY2vITO-XfqIBMaE34Q-92" target="fWY2vITO-XfqIBMaE34Q-127">
          <mxGeometry relative="1" as="geometry" />
        </mxCell>
        <mxCell id="fWY2vITO-XfqIBMaE34Q-144" value="save" style="edgeLabel;html=1;align=center;verticalAlign=middle;resizable=0;points=[];" vertex="1" connectable="0" parent="fWY2vITO-XfqIBMaE34Q-133">
          <mxGeometry x="0.2377" y="-15" relative="1" as="geometry">
            <mxPoint as="offset" />
          </mxGeometry>
        </mxCell>
        <mxCell id="fWY2vITO-XfqIBMaE34Q-92" value="Mapping Service" style="rounded=0;whiteSpace=wrap;html=1;fillColor=#bac8d3;strokeColor=#23445d;" vertex="1" parent="1">
          <mxGeometry x="310" y="-270" width="120" height="60" as="geometry" />
        </mxCell>
        <mxCell id="fWY2vITO-XfqIBMaE34Q-100" value="RIS" style="shape=cylinder3;whiteSpace=wrap;html=1;boundedLbl=1;backgroundOutline=1;size=15;fillColor=#f5f5f5;strokeColor=#666666;fontColor=#333333;" vertex="1" parent="1">
          <mxGeometry x="850" y="-380" width="180" height="90" as="geometry" />
        </mxCell>
        <mxCell id="fWY2vITO-XfqIBMaE34Q-101" value="PACS" style="shape=cylinder3;whiteSpace=wrap;html=1;boundedLbl=1;backgroundOutline=1;size=15;fillColor=#f5f5f5;strokeColor=#666666;fontColor=#333333;" vertex="1" parent="1">
          <mxGeometry x="1130" y="-190" width="180" height="120" as="geometry" />
        </mxCell>
        <mxCell id="fWY2vITO-XfqIBMaE34Q-102" value="DICOM header" style="rounded=0;whiteSpace=wrap;html=1;fillColor=#ffe6cc;strokeColor=#d79b00;" vertex="1" parent="1">
          <mxGeometry x="1150" y="-105" width="120" height="60" as="geometry" />
        </mxCell>
        <mxCell id="fWY2vITO-XfqIBMaE34Q-103" value="Request Procedure" style="rounded=0;whiteSpace=wrap;html=1;fillColor=#ffe6cc;strokeColor=#d79b00;" vertex="1" parent="1">
          <mxGeometry x="880" y="-310" width="120" height="60" as="geometry" />
        </mxCell>
        <mxCell id="fWY2vITO-XfqIBMaE34Q-107" value="store" style="edgeStyle=orthogonalEdgeStyle;rounded=0;orthogonalLoop=1;jettySize=auto;html=1;strokeColor=#D5E8D4;strokeWidth=4;" edge="1" parent="1" source="fWY2vITO-XfqIBMaE34Q-106" target="fWY2vITO-XfqIBMaE34Q-92">
          <mxGeometry relative="1" as="geometry">
            <mxPoint x="260" y="-360" as="targetPoint" />
          </mxGeometry>
        </mxCell>
        <mxCell id="fWY2vITO-XfqIBMaE34Q-106" value="GE PACS" style="rounded=0;whiteSpace=wrap;html=1;fillColor=#d5e8d4;strokeColor=#82b366;" vertex="1" parent="1">
          <mxGeometry x="60" y="-270" width="120" height="60" as="geometry" />
        </mxCell>
        <mxCell id="fWY2vITO-XfqIBMaE34Q-108" value="HL7 ORM / ORU inbound" style="rounded=0;whiteSpace=wrap;html=1;fillColor=#fad9d5;strokeColor=#ae4132;" vertex="1" parent="1">
          <mxGeometry x="60" y="-160" width="120" height="60" as="geometry" />
        </mxCell>
        <mxCell id="fWY2vITO-XfqIBMaE34Q-122" value="fix/merge, split, segment" style="edgeStyle=orthogonalEdgeStyle;orthogonalLoop=1;jettySize=auto;html=1;strokeWidth=6;fillColor=#fad9d5;curved=1;strokeColor=#F8CECC;" edge="1" parent="1" source="fWY2vITO-XfqIBMaE34Q-110">
          <mxGeometry x="-0.1212" relative="1" as="geometry">
            <mxPoint x="830" y="-40" as="targetPoint" />
            <mxPoint as="offset" />
          </mxGeometry>
        </mxCell>
        <mxCell id="fWY2vITO-XfqIBMaE34Q-110" value="Manual QC&amp;nbsp;" style="rounded=0;whiteSpace=wrap;html=1;labelBackgroundColor=none;fillColor=#fad9d5;strokeColor=#ae4132;" vertex="1" parent="1">
          <mxGeometry x="60" y="-60" width="120" height="60" as="geometry" />
        </mxCell>
        <mxCell id="fWY2vITO-XfqIBMaE34Q-124" style="edgeStyle=orthogonalEdgeStyle;orthogonalLoop=1;jettySize=auto;html=1;entryX=0;entryY=0.5;entryDx=0;entryDy=0;entryPerimeter=0;curved=1;strokeColor=#A680B8;strokeWidth=6;" edge="1" parent="1" source="fWY2vITO-XfqIBMaE34Q-117" target="fWY2vITO-XfqIBMaE34Q-101">
          <mxGeometry relative="1" as="geometry" />
        </mxCell>
        <mxCell id="fWY2vITO-XfqIBMaE34Q-148" value="update" style="edgeLabel;html=1;align=center;verticalAlign=middle;resizable=0;points=[];" vertex="1" connectable="0" parent="fWY2vITO-XfqIBMaE34Q-124">
          <mxGeometry x="0.0923" y="-2" relative="1" as="geometry">
            <mxPoint as="offset" />
          </mxGeometry>
        </mxCell>
        <mxCell id="fWY2vITO-XfqIBMaE34Q-117" value="DICOM Header Update" style="rounded=0;whiteSpace=wrap;html=1;labelBackgroundColor=none;fillColor=#60a917;strokeColor=#2D7600;fontColor=#ffffff;" vertex="1" parent="1">
          <mxGeometry x="840" y="-70" width="120" height="60" as="geometry" />
        </mxCell>
        <mxCell id="fWY2vITO-XfqIBMaE34Q-120" value="" style="endArrow=classic;html=1;exitX=1;exitY=0.5;exitDx=0;exitDy=0;entryX=0.5;entryY=1;entryDx=0;entryDy=0;fillColor=#fad9d5;strokeColor=#F8CECC;curved=1;strokeWidth=6;" edge="1" parent="1" source="fWY2vITO-XfqIBMaE34Q-108" target="fWY2vITO-XfqIBMaE34Q-92">
          <mxGeometry relative="1" as="geometry">
            <mxPoint x="590" y="-130.5" as="sourcePoint" />
            <mxPoint x="320" y="-320" as="targetPoint" />
            <Array as="points">
              <mxPoint x="370" y="-130" />
            </Array>
          </mxGeometry>
        </mxCell>
        <mxCell id="fWY2vITO-XfqIBMaE34Q-125" value="inbound" style="edgeLabel;html=1;align=center;verticalAlign=middle;resizable=0;points=[];" vertex="1" connectable="0" parent="fWY2vITO-XfqIBMaE34Q-120">
          <mxGeometry x="-0.4277" y="1" relative="1" as="geometry">
            <mxPoint x="-24" as="offset" />
          </mxGeometry>
        </mxCell>
        <mxCell id="fWY2vITO-XfqIBMaE34Q-141" value="save" style="edgeStyle=orthogonalEdgeStyle;orthogonalLoop=1;jettySize=auto;html=1;entryX=0;entryY=0.5;entryDx=0;entryDy=0;entryPerimeter=0;strokeColor=#D5E8D4;curved=1;rounded=0;strokeWidth=4;" edge="1" parent="1" source="fWY2vITO-XfqIBMaE34Q-127" target="fWY2vITO-XfqIBMaE34Q-100">
          <mxGeometry relative="1" as="geometry" />
        </mxCell>
        <mxCell id="fWY2vITO-XfqIBMaE34Q-142" style="edgeStyle=orthogonalEdgeStyle;orthogonalLoop=1;jettySize=auto;html=1;strokeColor=#D5E8D4;curved=1;rounded=0;strokeWidth=4;" edge="1" parent="1" source="fWY2vITO-XfqIBMaE34Q-127" target="fWY2vITO-XfqIBMaE34Q-117">
          <mxGeometry relative="1" as="geometry">
            <Array as="points">
              <mxPoint x="800" y="-335" />
              <mxPoint x="800" y="-130" />
            </Array>
          </mxGeometry>
        </mxCell>
        <mxCell id="fWY2vITO-XfqIBMaE34Q-145" value="update image" style="edgeLabel;html=1;align=center;verticalAlign=middle;resizable=0;points=[];" vertex="1" connectable="0" parent="fWY2vITO-XfqIBMaE34Q-142">
          <mxGeometry x="-0.0247" y="2" relative="1" as="geometry">
            <mxPoint x="38" as="offset" />
          </mxGeometry>
        </mxCell>
        <mxCell id="fWY2vITO-XfqIBMaE34Q-127" value="StoreService" style="rounded=0;whiteSpace=wrap;html=1;labelBackgroundColor=none;" vertex="1" parent="1">
          <mxGeometry x="600" y="-365" width="120" height="60" as="geometry" />
        </mxCell>
        <mxCell id="fWY2vITO-XfqIBMaE34Q-140" style="edgeStyle=orthogonalEdgeStyle;orthogonalLoop=1;jettySize=auto;html=1;entryX=0;entryY=0.5;entryDx=0;entryDy=0;strokeColor=#F8CECC;entryPerimeter=0;curved=1;strokeWidth=6;fillColor=#fad9d5;" edge="1" parent="1" source="fWY2vITO-XfqIBMaE34Q-130" target="fWY2vITO-XfqIBMaE34Q-100">
          <mxGeometry relative="1" as="geometry" />
        </mxCell>
        <mxCell id="fWY2vITO-XfqIBMaE34Q-146" value="save" style="edgeLabel;html=1;align=center;verticalAlign=middle;resizable=0;points=[];" vertex="1" connectable="0" parent="fWY2vITO-XfqIBMaE34Q-140">
          <mxGeometry x="-0.3313" y="11" relative="1" as="geometry">
            <mxPoint y="-38" as="offset" />
          </mxGeometry>
        </mxCell>
        <mxCell id="fWY2vITO-XfqIBMaE34Q-143" style="edgeStyle=orthogonalEdgeStyle;orthogonalLoop=1;jettySize=auto;html=1;entryX=0;entryY=0.5;entryDx=0;entryDy=0;strokeColor=#F8CECC;curved=1;strokeWidth=6;fillColor=#fad9d5;" edge="1" parent="1" source="fWY2vITO-XfqIBMaE34Q-130" target="fWY2vITO-XfqIBMaE34Q-117">
          <mxGeometry relative="1" as="geometry" />
        </mxCell>
        <mxCell id="fWY2vITO-XfqIBMaE34Q-147" value="update study series async" style="edgeLabel;html=1;align=center;verticalAlign=middle;resizable=0;points=[];" vertex="1" connectable="0" parent="fWY2vITO-XfqIBMaE34Q-143">
          <mxGeometry x="-0.1043" y="5" relative="1" as="geometry">
            <mxPoint y="22" as="offset" />
          </mxGeometry>
        </mxCell>
        <mxCell id="fWY2vITO-XfqIBMaE34Q-130" value="ORM/ORU Service" style="rounded=0;whiteSpace=wrap;html=1;labelBackgroundColor=none;" vertex="1" parent="1">
          <mxGeometry x="590" y="-170" width="120" height="60" as="geometry" />
        </mxCell>
        <mxCell id="fWY2vITO-XfqIBMaE34Q-150" value="Study manager" style="rounded=0;whiteSpace=wrap;html=1;labelBackgroundColor=none;fillColor=#fad9d5;strokeColor=#ae4132;" vertex="1" parent="1">
          <mxGeometry x="60" y="30" width="120" height="60" as="geometry" />
        </mxCell>
        <mxCell id="fWY2vITO-XfqIBMaE34Q-151" value="update study time" style="edgeStyle=orthogonalEdgeStyle;orthogonalLoop=1;jettySize=auto;html=1;strokeWidth=6;fillColor=#fad9d5;curved=1;strokeColor=#F8CECC;" edge="1" parent="1" target="fWY2vITO-XfqIBMaE34Q-117">
          <mxGeometry x="-0.1212" relative="1" as="geometry">
            <mxPoint x="179.99999999999977" y="60" as="sourcePoint" />
            <mxPoint x="830" y="50" as="targetPoint" />
            <mxPoint as="offset" />
            <Array as="points">
              <mxPoint x="505" y="60" />
              <mxPoint x="505" y="70" />
              <mxPoint x="810" y="70" />
              <mxPoint x="810" y="50" />
              <mxPoint x="900" y="50" />
            </Array>
          </mxGeometry>
        </mxCell>
        <mxCell id="fWY2vITO-XfqIBMaE34Q-154" style="edgeStyle=orthogonalEdgeStyle;curved=1;orthogonalLoop=1;jettySize=auto;html=1;entryX=0.5;entryY=1;entryDx=0;entryDy=0;strokeWidth=6;strokeColor=#F8CECC;" edge="1" parent="1" source="fWY2vITO-XfqIBMaE34Q-153" target="fWY2vITO-XfqIBMaE34Q-117">
          <mxGeometry relative="1" as="geometry" />
        </mxCell>
        <mxCell id="fWY2vITO-XfqIBMaE34Q-155" value="update study series async" style="edgeLabel;html=1;align=center;verticalAlign=middle;resizable=0;points=[];" vertex="1" connectable="0" parent="fWY2vITO-XfqIBMaE34Q-154">
          <mxGeometry x="-0.128" y="13" relative="1" as="geometry">
            <mxPoint as="offset" />
          </mxGeometry>
        </mxCell>
        <mxCell id="fWY2vITO-XfqIBMaE34Q-153" value="Edit Order/&amp;nbsp;&lt;br&gt;Save Order in Order review" style="rounded=0;whiteSpace=wrap;html=1;fillColor=#fad9d5;strokeColor=#ae4132;" vertex="1" parent="1">
          <mxGeometry x="60" y="110" width="120" height="60" as="geometry" />
        </mxCell>
      </root>
    </mxGraphModel>
  </diagram>
</mxfile>
